{
	"asset":{
		"generator":"Khronos glTF Blender I/O v3.5.30",
		"version":"2.0"
	},
	"scene":0,
	"scenes":[
		{
			"name":"Scene",
			"nodes":[
				0,
				1,
				2,
				3,
				4,
				5,
				6,
				7,
				8,
				9
			]
		}
	],
	"nodes":[
		{
			"mesh":0,
			"name":"6001_c3_1",
			"rotation":[
				0.5076989531517029,
				0.4921806752681732,
				-0.49218064546585083,
				0.5076990723609924
			],
			"scale":[
				0.633197009563446,
				0.633197009563446,
				0.633197009563446
			],
			"translation":[
				0,
				0,
				2.6632485389709473
			]
		},
		{
			"mesh":1,
			"name":"6001_c3_10",
			"rotation":[
				0.5076989531517029,
				0.4921806752681732,
				-0.49218064546585083,
				0.5076990723609924
			],
			"scale":[
				0.633197009563446,
				0.633197009563446,
				0.633197009563446
			],
			"translation":[
				0,
				0,
				2.6632485389709473
			]
		},
		{
			"mesh":2,
			"name":"6001_c3_2",
			"rotation":[
				0.5076989531517029,
				0.4921806752681732,
				-0.49218064546585083,
				0.5076990723609924
			],
			"scale":[
				0.633197009563446,
				0.633197009563446,
				0.633197009563446
			],
			"translation":[
				0,
				0,
				2.6632485389709473
			]
		},
		{
			"mesh":3,
			"name":"6001_c3_3",
			"rotation":[
				0.5076989531517029,
				0.4921806752681732,
				-0.49218064546585083,
				0.5076990723609924
			],
			"scale":[
				0.633197009563446,
				0.633197009563446,
				0.633197009563446
			],
			"translation":[
				0,
				0,
				2.6632485389709473
			]
		},
		{
			"mesh":4,
			"name":"6001_c3_4",
			"rotation":[
				0.5076989531517029,
				0.4921806752681732,
				-0.49218064546585083,
				0.5076990723609924
			],
			"scale":[
				0.633197009563446,
				0.633197009563446,
				0.633197009563446
			],
			"translation":[
				0,
				0,
				2.6632485389709473
			]
		},
		{
			"mesh":5,
			"name":"6001_c3_5",
			"rotation":[
				0.5076989531517029,
				0.4921806752681732,
				-0.49218064546585083,
				0.5076990723609924
			],
			"scale":[
				0.633197009563446,
				0.633197009563446,
				0.633197009563446
			],
			"translation":[
				0,
				0,
				2.6632485389709473
			]
		},
		{
			"mesh":6,
			"name":"6001_c3_6",
			"rotation":[
				0.5076989531517029,
				0.4921806752681732,
				-0.49218064546585083,
				0.5076990723609924
			],
			"scale":[
				0.633197009563446,
				0.633197009563446,
				0.633197009563446
			],
			"translation":[
				0,
				0,
				2.6632485389709473
			]
		},
		{
			"mesh":7,
			"name":"6001_c3_7",
			"rotation":[
				0.5076989531517029,
				0.4921806752681732,
				-0.49218064546585083,
				0.5076990723609924
			],
			"scale":[
				0.633197009563446,
				0.633197009563446,
				0.633197009563446
			],
			"translation":[
				0,
				0,
				2.6632485389709473
			]
		},
		{
			"mesh":8,
			"name":"6001_c3_8",
			"rotation":[
				0.5076989531517029,
				0.4921806752681732,
				-0.49218064546585083,
				0.5076990723609924
			],
			"scale":[
				0.633197009563446,
				0.633197009563446,
				0.633197009563446
			],
			"translation":[
				0,
				0,
				2.6632485389709473
			]
		},
		{
			"mesh":9,
			"name":"6001_c3_9",
			"rotation":[
				0.5076989531517029,
				0.4921806752681732,
				-0.49218064546585083,
				0.5076990723609924
			],
			"scale":[
				0.633197009563446,
				0.633197009563446,
				0.633197009563446
			],
			"translation":[
				0,
				0,
				2.6632485389709473
			]
		}
	],
	"materials":[
		{
			"doubleSided":true,
			"name":"Steel",
			"pbrMetallicRoughness":{
				"baseColorFactor":[
					0.09084159880876541,
					0.0908416211605072,
					0.09084171056747437,
					1
				],
				"metallicFactor":0.5454543828964233,
				"roughnessFactor":0.3545454740524292
			}
		},
		{
			"doubleSided":true,
			"name":"steel balls",
			"pbrMetallicRoughness":{
				"baseColorFactor":[
					0.03310474008321762,
					0.033104751259088516,
					0.033104781061410904,
					1
				],
				"metallicFactor":0.5499998331069946,
				"roughnessFactor":0.35499998927116394
			}
		}
	],
	"meshes":[
		{
			"name":"6001_c3_1",
			"primitives":[
				{
					"attributes":{
						"POSITION":0,
						"NORMAL":1
					},
					"indices":2,
					"material":0
				}
			]
		},
		{
			"name":"6001_c3_10",
			"primitives":[
				{
					"attributes":{
						"POSITION":3,
						"NORMAL":4
					},
					"indices":5,
					"material":1
				}
			]
		},
		{
			"name":"6001_c3_2",
			"primitives":[
				{
					"attributes":{
						"POSITION":6,
						"NORMAL":7
					},
					"indices":8,
					"material":0
				}
			]
		},
		{
			"name":"6001_c3_3",
			"primitives":[
				{
					"attributes":{
						"POSITION":9,
						"NORMAL":10
					},
					"indices":11,
					"material":1
				}
			]
		},
		{
			"name":"6001_c3_4",
			"primitives":[
				{
					"attributes":{
						"POSITION":12,
						"NORMAL":13
					},
					"indices":14,
					"material":1
				}
			]
		},
		{
			"name":"6001_c3_5",
			"primitives":[
				{
					"attributes":{
						"POSITION":15,
						"NORMAL":16
					},
					"indices":17,
					"material":1
				}
			]
		},
		{
			"name":"6001_c3_6",
			"primitives":[
				{
					"attributes":{
						"POSITION":18,
						"NORMAL":19
					},
					"indices":20,
					"material":1
				}
			]
		},
		{
			"name":"6001_c3_7",
			"primitives":[
				{
					"attributes":{
						"POSITION":21,
						"NORMAL":22
					},
					"indices":23,
					"material":1
				}
			]
		},
		{
			"name":"6001_c3_8",
			"primitives":[
				{
					"attributes":{
						"POSITION":24,
						"NORMAL":25
					},
					"indices":26,
					"material":1
				}
			]
		},
		{
			"name":"6001_c3_9",
			"primitives":[
				{
					"attributes":{
						"POSITION":27,
						"NORMAL":28
					},
					"indices":29,
					"material":1
				}
			]
		}
	],
	"accessors":[
		{
			"bufferView":0,
			"componentType":5126,
			"count":1637,
			"max":[
				8,
				8.5,
				8.496000289916992
			],
			"min":[
				0,
				-8.5,
				-8.496000289916992
			],
			"type":"VEC3"
		},
		{
			"bufferView":1,
			"componentType":5126,
			"count":1637,
			"type":"VEC3"
		},
		{
			"bufferView":2,
			"componentType":5123,
			"count":5754,
			"type":"SCALAR"
		},
		{
			"bufferView":3,
			"componentType":5126,
			"count":1084,
			"max":[
				6.38100004196167,
				9.442000389099121,
				-4.699999809265137
			],
			"min":[
				1.61899995803833,
				4.699999809265137,
				-9.442000389099121
			],
			"type":"VEC3"
		},
		{
			"bufferView":4,
			"componentType":5126,
			"count":1084,
			"type":"VEC3"
		},
		{
			"bufferView":5,
			"componentType":5123,
			"count":4104,
			"type":"SCALAR"
		},
		{
			"bufferView":6,
			"componentType":5126,
			"count":2940,
			"max":[
				8,
				14,
				13.961000442504883
			],
			"min":[
				0,
				-14,
				-13.961000442504883
			],
			"type":"VEC3"
		},
		{
			"bufferView":7,
			"componentType":5126,
			"count":2940,
			"type":"VEC3"
		},
		{
			"bufferView":8,
			"componentType":5123,
			"count":10146,
			"type":"SCALAR"
		},
		{
			"bufferView":9,
			"componentType":5126,
			"count":1128,
			"max":[
				6.38100004196167,
				2.365000009536743,
				-7.626999855041504
			],
			"min":[
				1.61899995803833,
				-2.365000009536743,
				-12.373000144958496
			],
			"type":"VEC3"
		},
		{
			"bufferView":10,
			"componentType":5126,
			"count":1128,
			"type":"VEC3"
		},
		{
			"bufferView":11,
			"componentType":5123,
			"count":4104,
			"type":"SCALAR"
		},
		{
			"bufferView":12,
			"componentType":5126,
			"count":1079,
			"max":[
				6.38100004196167,
				-4.699999809265137,
				-4.699999809265137
			],
			"min":[
				1.61899995803833,
				-9.442000389099121,
				-9.442000389099121
			],
			"type":"VEC3"
		},
		{
			"bufferView":13,
			"componentType":5126,
			"count":1079,
			"type":"VEC3"
		},
		{
			"bufferView":14,
			"componentType":5123,
			"count":4104,
			"type":"SCALAR"
		},
		{
			"bufferView":15,
			"componentType":5126,
			"count":1121,
			"max":[
				6.38100004196167,
				-7.626999855041504,
				2.365000009536743
			],
			"min":[
				1.61899995803833,
				-12.373000144958496,
				-2.365000009536743
			],
			"type":"VEC3"
		},
		{
			"bufferView":16,
			"componentType":5126,
			"count":1121,
			"type":"VEC3"
		},
		{
			"bufferView":17,
			"componentType":5123,
			"count":4104,
			"type":"SCALAR"
		},
		{
			"bufferView":18,
			"componentType":5126,
			"count":1084,
			"max":[
				6.38100004196167,
				-4.699999809265137,
				9.442000389099121
			],
			"min":[
				1.61899995803833,
				-9.442000389099121,
				4.699999809265137
			],
			"type":"VEC3"
		},
		{
			"bufferView":19,
			"componentType":5126,
			"count":1084,
			"type":"VEC3"
		},
		{
			"bufferView":20,
			"componentType":5123,
			"count":4104,
			"type":"SCALAR"
		},
		{
			"bufferView":21,
			"componentType":5126,
			"count":1128,
			"max":[
				6.38100004196167,
				2.365000009536743,
				12.373000144958496
			],
			"min":[
				1.61899995803833,
				-2.365000009536743,
				7.626999855041504
			],
			"type":"VEC3"
		},
		{
			"bufferView":22,
			"componentType":5126,
			"count":1128,
			"type":"VEC3"
		},
		{
			"bufferView":23,
			"componentType":5123,
			"count":4104,
			"type":"SCALAR"
		},
		{
			"bufferView":24,
			"componentType":5126,
			"count":1079,
			"max":[
				6.38100004196167,
				9.442000389099121,
				9.442000389099121
			],
			"min":[
				1.61899995803833,
				4.699999809265137,
				4.699999809265137
			],
			"type":"VEC3"
		},
		{
			"bufferView":25,
			"componentType":5126,
			"count":1079,
			"type":"VEC3"
		},
		{
			"bufferView":26,
			"componentType":5123,
			"count":4104,
			"type":"SCALAR"
		},
		{
			"bufferView":27,
			"componentType":5126,
			"count":1121,
			"max":[
				6.38100004196167,
				12.373000144958496,
				2.365000009536743
			],
			"min":[
				1.61899995803833,
				7.626999855041504,
				-2.365000009536743
			],
			"type":"VEC3"
		},
		{
			"bufferView":28,
			"componentType":5126,
			"count":1121,
			"type":"VEC3"
		},
		{
			"bufferView":29,
			"componentType":5123,
			"count":4104,
			"type":"SCALAR"
		}
	],
	"bufferViews":[
		{
			"buffer":0,
			"byteLength":19644,
			"byteOffset":0,
			"target":34962
		},
		{
			"buffer":0,
			"byteLength":19644,
			"byteOffset":19644,
			"target":34962
		},
		{
			"buffer":0,
			"byteLength":11508,
			"byteOffset":39288,
			"target":34963
		},
		{
			"buffer":0,
			"byteLength":13008,
			"byteOffset":50796,
			"target":34962
		},
		{
			"buffer":0,
			"byteLength":13008,
			"byteOffset":63804,
			"target":34962
		},
		{
			"buffer":0,
			"byteLength":8208,
			"byteOffset":76812,
			"target":34963
		},
		{
			"buffer":0,
			"byteLength":35280,
			"byteOffset":85020,
			"target":34962
		},
		{
			"buffer":0,
			"byteLength":35280,
			"byteOffset":120300,
			"target":34962
		},
		{
			"buffer":0,
			"byteLength":20292,
			"byteOffset":155580,
			"target":34963
		},
		{
			"buffer":0,
			"byteLength":13536,
			"byteOffset":175872,
			"target":34962
		},
		{
			"buffer":0,
			"byteLength":13536,
			"byteOffset":189408,
			"target":34962
		},
		{
			"buffer":0,
			"byteLength":8208,
			"byteOffset":202944,
			"target":34963
		},
		{
			"buffer":0,
			"byteLength":12948,
			"byteOffset":211152,
			"target":34962
		},
		{
			"buffer":0,
			"byteLength":12948,
			"byteOffset":224100,
			"target":34962
		},
		{
			"buffer":0,
			"byteLength":8208,
			"byteOffset":237048,
			"target":34963
		},
		{
			"buffer":0,
			"byteLength":13452,
			"byteOffset":245256,
			"target":34962
		},
		{
			"buffer":0,
			"byteLength":13452,
			"byteOffset":258708,
			"target":34962
		},
		{
			"buffer":0,
			"byteLength":8208,
			"byteOffset":272160,
			"target":34963
		},
		{
			"buffer":0,
			"byteLength":13008,
			"byteOffset":280368,
			"target":34962
		},
		{
			"buffer":0,
			"byteLength":13008,
			"byteOffset":293376,
			"target":34962
		},
		{
			"buffer":0,
			"byteLength":8208,
			"byteOffset":306384,
			"target":34963
		},
		{
			"buffer":0,
			"byteLength":13536,
			"byteOffset":314592,
			"target":34962
		},
		{
			"buffer":0,
			"byteLength":13536,
			"byteOffset":328128,
			"target":34962
		},
		{
			"buffer":0,
			"byteLength":8208,
			"byteOffset":341664,
			"target":34963
		},
		{
			"buffer":0,
			"byteLength":12948,
			"byteOffset":349872,
			"target":34962
		},
		{
			"buffer":0,
			"byteLength":12948,
			"byteOffset":362820,
			"target":34962
		},
		{
			"buffer":0,
			"byteLength":8208,
			"byteOffset":375768,
			"target":34963
		},
		{
			"buffer":0,
			"byteLength":13452,
			"byteOffset":383976,
			"target":34962
		},
		{
			"buffer":0,
			"byteLength":13452,
			"byteOffset":397428,
			"target":34962
		},
		{
			"buffer":0,
			"byteLength":8208,
			"byteOffset":410880,
			"target":34963
		}
	],
	"buffers":[
		{
			"byteLength":419088,
			"uri":"data:application/octet-stream;base64,"
		}
	]
}
