{
	"asset":{
		"generator":"Khronos glTF Blender I/O v3.5.30",
		"version":"2.0"
	},
	"scene":0,
	"scenes":[
		{
			"name":"Scene",
			"nodes":[
				0
			]
		}
	],
	"nodes":[
		{
			"mesh":0,
			"name":"1214_1",
			"rotation":[
				0.49851924180984497,
				0.5014764070510864,
				-0.5014763474464417,
				0.49851927161216736
			],
			"scale":[
				0.14907121658325195,
				0.14907121658325195,
				0.14907121658325195
			]
		}
	],
	"materials":[
		{
			"doubleSided":true,
			"name":"Steel",
			"pbrMetallicRoughness":{
				"baseColorFactor":[
					0.09084159880876541,
					0.0908416211605072,
					0.09084171056747437,
					1
				],
				"metallicFactor":0.5454543828964233,
				"roughnessFactor":0.3545454740524292
			}
		},
		{
			"doubleSided":true,
			"name":"steel balls",
			"pbrMetallicRoughness":{
				"baseColorFactor":[
					0.03310474008321762,
					0.033104751259088516,
					0.033104781061410904,
					1
				],
				"metallicFactor":0.5499998331069946,
				"roughnessFactor":0.35499998927116394
			}
		}
	],
	"meshes":[
		{
			"name":"1214_1",
			"primitives":[
				{
					"attributes":{
						"POSITION":0,
						"NORMAL":1
					},
					"indices":2,
					"material":0
				},
				{
					"attributes":{
						"POSITION":3,
						"NORMAL":4
					},
					"indices":5,
					"material":1
				}
			]
		}
	],
	"accessors":[
		{
			"bufferView":0,
			"componentType":5126,
			"count":6575,
			"max":[
				12,
				62.5,
				62.5
			],
			"min":[
				-12,
				-62.44900131225586,
				-62.5
			],
			"type":"VEC3"
		},
		{
			"bufferView":1,
			"componentType":5126,
			"count":6575,
			"type":"VEC3"
		},
		{
			"bufferView":2,
			"componentType":5123,
			"count":18876,
			"type":"SCALAR"
		},
		{
			"bufferView":3,
			"componentType":5126,
			"count":13837,
			"max":[
				10.883000373840332,
				53.6349983215332,
				53.87799835205078
			],
			"min":[
				-10.883000373840332,
				-53.92900085449219,
				-53.9010009765625
			],
			"type":"VEC3"
		},
		{
			"bufferView":4,
			"componentType":5126,
			"count":13837,
			"type":"VEC3"
		},
		{
			"bufferView":5,
			"componentType":5123,
			"count":45264,
			"type":"SCALAR"
		}
	],
	"bufferViews":[
		{
			"buffer":0,
			"byteLength":78900,
			"byteOffset":0,
			"target":34962
		},
		{
			"buffer":0,
			"byteLength":78900,
			"byteOffset":78900,
			"target":34962
		},
		{
			"buffer":0,
			"byteLength":37752,
			"byteOffset":157800,
			"target":34963
		},
		{
			"buffer":0,
			"byteLength":166044,
			"byteOffset":195552,
			"target":34962
		},
		{
			"buffer":0,
			"byteLength":166044,
			"byteOffset":361596,
			"target":34962
		},
		{
			"buffer":0,
			"byteLength":90528,
			"byteOffset":527640,
			"target":34963
		}
	],
	"buffers":[
		{
			"byteLength":618168,
			"uri":"data:application/octet-stream;base64,"
		}
	]
}
