{
	"asset":{
		"generator":"Khronos glTF Blender I/O v3.5.30",
		"version":"2.0"
	},
	"scene":0,
	"scenes":[
		{
			"name":"Scene",
			"nodes":[
				0,
				1,
				2,
				3,
				4
			]
		}
	],
	"nodes":[
		{
			"mesh":0,
			"name":"00095600_1",
			"rotation":[
				0.49790793657302856,
				-0.502083420753479,
				0.5020833611488342,
				0.49790796637535095
			],
			"scale":[
				-0.10402124375104904,
				-0.10402124375104904,
				-0.10402124375104904
			],
			"translation":[
				0.5971727967262268,
				-0.28067684173583984,
				3.801395893096924
			]
		},
		{
			"mesh":1,
			"name":"00095600_2",
			"rotation":[
				0.49790793657302856,
				-0.502083420753479,
				0.5020833611488342,
				0.49790796637535095
			],
			"scale":[
				-0.10402124375104904,
				-0.10402124375104904,
				-0.10402124375104904
			],
			"translation":[
				0.5971727967262268,
				-0.28067684173583984,
				3.801395893096924
			]
		},
		{
			"mesh":2,
			"name":"00095600_3",
			"rotation":[
				0.49790793657302856,
				-0.502083420753479,
				0.5020833611488342,
				0.49790796637535095
			],
			"scale":[
				-0.10402124375104904,
				-0.10402124375104904,
				-0.10402124375104904
			],
			"translation":[
				0.5971727967262268,
				-0.28067684173583984,
				3.801395893096924
			]
		},
		{
			"mesh":3,
			"name":"00095600_4",
			"rotation":[
				0.49790793657302856,
				-0.502083420753479,
				0.5020833611488342,
				0.49790796637535095
			],
			"scale":[
				-0.10402124375104904,
				-0.10402124375104904,
				-0.10402124375104904
			],
			"translation":[
				0.5971727967262268,
				-0.28067684173583984,
				3.801395893096924
			]
		},
		{
			"mesh":4,
			"name":"00095600_5",
			"rotation":[
				0.49790793657302856,
				-0.502083420753479,
				0.5020833611488342,
				0.49790796637535095
			],
			"scale":[
				-0.10402124375104904,
				-0.10402124375104904,
				-0.10402124375104904
			],
			"translation":[
				0.5971727967262268,
				-0.28067684173583984,
				3.801395893096924
			]
		}
	],
	"materials":[
		{
			"doubleSided":true,
			"name":"Steel",
			"pbrMetallicRoughness":{
				"baseColorFactor":[
					0.09084159880876541,
					0.0908416211605072,
					0.09084171056747437,
					1
				],
				"metallicFactor":0.5454543828964233,
				"roughnessFactor":0.3545454740524292
			}
		},
		{
			"doubleSided":true,
			"name":"steel balls",
			"pbrMetallicRoughness":{
				"baseColorFactor":[
					0.03310474008321762,
					0.033104751259088516,
					0.033104781061410904,
					1
				],
				"metallicFactor":0.5499998331069946,
				"roughnessFactor":0.35499998927116394
			}
		}
	],
	"meshes":[
		{
			"name":"00095600_1",
			"primitives":[
				{
					"attributes":{
						"POSITION":0,
						"NORMAL":1
					},
					"indices":2,
					"material":0
				}
			]
		},
		{
			"name":"00095600_2",
			"primitives":[
				{
					"attributes":{
						"POSITION":3,
						"NORMAL":4
					},
					"indices":5,
					"material":0
				}
			]
		},
		{
			"name":"00095600_3",
			"primitives":[
				{
					"attributes":{
						"POSITION":6,
						"NORMAL":7
					},
					"indices":8,
					"material":0
				}
			]
		},
		{
			"name":"00095600_4",
			"primitives":[
				{
					"attributes":{
						"POSITION":9,
						"NORMAL":10
					},
					"indices":11,
					"material":1
				}
			]
		},
		{
			"name":"00095600_5",
			"primitives":[
				{
					"attributes":{
						"POSITION":12,
						"NORMAL":13
					},
					"indices":14,
					"material":1
				}
			]
		}
	],
	"accessors":[
		{
			"bufferView":0,
			"componentType":5126,
			"count":2344,
			"max":[
				38,
				120,
				120
			],
			"min":[
				0,
				-120,
				-120
			],
			"type":"VEC3"
		},
		{
			"bufferView":1,
			"componentType":5126,
			"count":2344,
			"type":"VEC3"
		},
		{
			"bufferView":2,
			"componentType":5123,
			"count":8550,
			"type":"SCALAR"
		},
		{
			"bufferView":3,
			"componentType":5126,
			"count":2352,
			"max":[
				76,
				120,
				120
			],
			"min":[
				38,
				-120,
				-120
			],
			"type":"VEC3"
		},
		{
			"bufferView":4,
			"componentType":5126,
			"count":2352,
			"type":"VEC3"
		},
		{
			"bufferView":5,
			"componentType":5123,
			"count":8550,
			"type":"SCALAR"
		},
		{
			"bufferView":6,
			"componentType":5126,
			"count":3531,
			"max":[
				76,
				93.4520034790039,
				93.4520034790039
			],
			"min":[
				0,
				-93.4520034790039,
				-93.4520034790039
			],
			"type":"VEC3"
		},
		{
			"bufferView":7,
			"componentType":5126,
			"count":3531,
			"type":"VEC3"
		},
		{
			"bufferView":8,
			"componentType":5123,
			"count":13122,
			"type":"SCALAR"
		},
		{
			"bufferView":9,
			"componentType":5126,
			"count":9539,
			"max":[
				31.666000366210938,
				111.55599975585938,
				110.91600036621094
			],
			"min":[
				7.854000091552734,
				-111.55599975585938,
				-111.67500305175781
			],
			"type":"VEC3"
		},
		{
			"bufferView":10,
			"componentType":5126,
			"count":9539,
			"type":"VEC3"
		},
		{
			"bufferView":11,
			"componentType":5123,
			"count":30348,
			"type":"SCALAR"
		},
		{
			"bufferView":12,
			"componentType":5126,
			"count":9569,
			"max":[
				68.14600372314453,
				111.55599975585938,
				110.91600036621094
			],
			"min":[
				44.33399963378906,
				-111.55599975585938,
				-111.67500305175781
			],
			"type":"VEC3"
		},
		{
			"bufferView":13,
			"componentType":5126,
			"count":9569,
			"type":"VEC3"
		},
		{
			"bufferView":14,
			"componentType":5123,
			"count":30348,
			"type":"SCALAR"
		}
	],
	"bufferViews":[
		{
			"buffer":0,
			"byteLength":28128,
			"byteOffset":0,
			"target":34962
		},
		{
			"buffer":0,
			"byteLength":28128,
			"byteOffset":28128,
			"target":34962
		},
		{
			"buffer":0,
			"byteLength":17100,
			"byteOffset":56256,
			"target":34963
		},
		{
			"buffer":0,
			"byteLength":28224,
			"byteOffset":73356,
			"target":34962
		},
		{
			"buffer":0,
			"byteLength":28224,
			"byteOffset":101580,
			"target":34962
		},
		{
			"buffer":0,
			"byteLength":17100,
			"byteOffset":129804,
			"target":34963
		},
		{
			"buffer":0,
			"byteLength":42372,
			"byteOffset":146904,
			"target":34962
		},
		{
			"buffer":0,
			"byteLength":42372,
			"byteOffset":189276,
			"target":34962
		},
		{
			"buffer":0,
			"byteLength":26244,
			"byteOffset":231648,
			"target":34963
		},
		{
			"buffer":0,
			"byteLength":114468,
			"byteOffset":257892,
			"target":34962
		},
		{
			"buffer":0,
			"byteLength":114468,
			"byteOffset":372360,
			"target":34962
		},
		{
			"buffer":0,
			"byteLength":60696,
			"byteOffset":486828,
			"target":34963
		},
		{
			"buffer":0,
			"byteLength":114828,
			"byteOffset":547524,
			"target":34962
		},
		{
			"buffer":0,
			"byteLength":114828,
			"byteOffset":662352,
			"target":34962
		},
		{
			"buffer":0,
			"byteLength":60696,
			"byteOffset":777180,
			"target":34963
		}
	],
	"buffers":[
		{
			"byteLength":837876,
			"uri":"data:application/octet-stream;base64,"
		}
	]
}
