{
	"asset":{
		"generator":"Khronos glTF Blender I/O v3.5.30",
		"version":"2.0"
	},
	"scene":0,
	"scenes":[
		{
			"name":"Scene",
			"nodes":[
				0,
				1
			]
		}
	],
	"nodes":[
		{
			"mesh":0,
			"name":"1206_1",
			"rotation":[
				-0.0018803905695676804,
				0,
				0,
				1
			],
			"scale":[
				0.43315908312797546,
				0.43315908312797546,
				0.43315908312797546
			]
		},
		{
			"mesh":1,
			"name":"1206_2",
			"rotation":[
				-0.0018803905695676804,
				0,
				0,
				1
			],
			"scale":[
				0.43315908312797546,
				0.43315908312797546,
				0.43315908312797546
			]
		}
	],
	"materials":[
		{
			"doubleSided":true,
			"name":"steel balls",
			"pbrMetallicRoughness":{
				"baseColorFactor":[
					0.03310474008321762,
					0.033104751259088516,
					0.033104781061410904,
					1
				],
				"metallicFactor":0.5499998331069946,
				"roughnessFactor":0.35499998927116394
			}
		},
		{
			"doubleSided":true,
			"name":"Steel",
			"pbrMetallicRoughness":{
				"baseColorFactor":[
					0.09084159880876541,
					0.0908416211605072,
					0.09084171056747437,
					1
				],
				"metallicFactor":0.5454543828964233,
				"roughnessFactor":0.3545454740524292
			}
		}
	],
	"meshes":[
		{
			"name":"1206_1",
			"primitives":[
				{
					"attributes":{
						"POSITION":0,
						"NORMAL":1
					},
					"indices":2,
					"material":0
				}
			]
		},
		{
			"name":"1206_2",
			"primitives":[
				{
					"attributes":{
						"POSITION":3,
						"NORMAL":4
					},
					"indices":5,
					"material":1
				}
			]
		}
	],
	"accessors":[
		{
			"bufferView":0,
			"componentType":5126,
			"count":12125,
			"max":[
				31,
				31,
				8
			],
			"min":[
				-31,
				-30.89900016784668,
				-8
			],
			"type":"VEC3"
		},
		{
			"bufferView":1,
			"componentType":5126,
			"count":12125,
			"type":"VEC3"
		},
		{
			"bufferView":2,
			"componentType":5123,
			"count":40332,
			"type":"SCALAR"
		},
		{
			"bufferView":3,
			"componentType":5126,
			"count":1952,
			"max":[
				20.200000762939453,
				20.200000762939453,
				8
			],
			"min":[
				-20.200000762939453,
				-20.184999465942383,
				-8
			],
			"type":"VEC3"
		},
		{
			"bufferView":4,
			"componentType":5126,
			"count":1952,
			"type":"VEC3"
		},
		{
			"bufferView":5,
			"componentType":5123,
			"count":7236,
			"type":"SCALAR"
		}
	],
	"bufferViews":[
		{
			"buffer":0,
			"byteLength":145500,
			"byteOffset":0,
			"target":34962
		},
		{
			"buffer":0,
			"byteLength":145500,
			"byteOffset":145500,
			"target":34962
		},
		{
			"buffer":0,
			"byteLength":80664,
			"byteOffset":291000,
			"target":34963
		},
		{
			"buffer":0,
			"byteLength":23424,
			"byteOffset":371664,
			"target":34962
		},
		{
			"buffer":0,
			"byteLength":23424,
			"byteOffset":395088,
			"target":34962
		},
		{
			"buffer":0,
			"byteLength":14472,
			"byteOffset":418512,
			"target":34963
		}
	],
	"buffers":[
		{
			"byteLength":432984,
			"uri":"data:application/octet-stream;base64,"
		}
	]
}
