{
	"asset":{
		"generator":"Khronos glTF Blender I/O v3.5.30",
		"version":"2.0"
	},
	"scene":0,
	"scenes":[
		{
			"name":"Scene",
			"nodes":[
				0,
				1,
				2
			]
		}
	],
	"nodes":[
		{
			"mesh":0,
			"name":"32221_1",
			"rotation":[
				0.4985595643520355,
				-0.5014364123344421,
				0.5014363527297974,
				0.4985595941543579
			],
			"scale":[
				0.13887546956539154,
				0.13887546956539154,
				0.13887546956539154
			],
			"translation":[
				0,
				0,
				-3.152634620666504
			]
		},
		{
			"mesh":1,
			"name":"32221_2",
			"rotation":[
				0.4985595643520355,
				-0.5014364123344421,
				0.5014363527297974,
				0.4985595941543579
			],
			"scale":[
				0.13887546956539154,
				0.13887546956539154,
				0.13887546956539154
			],
			"translation":[
				0,
				0,
				-3.152634620666504
			]
		},
		{
			"mesh":2,
			"name":"32221_3",
			"rotation":[
				0.4985595643520355,
				-0.5014364123344421,
				0.5014363527297974,
				0.4985595941543579
			],
			"scale":[
				0.13887546956539154,
				0.13887546956539154,
				0.13887546956539154
			],
			"translation":[
				0,
				0,
				-3.152634620666504
			]
		}
	],
	"materials":[
		{
			"doubleSided":true,
			"name":"Steel",
			"pbrMetallicRoughness":{
				"baseColorFactor":[
					0.09084159880876541,
					0.0908416211605072,
					0.09084171056747437,
					1
				],
				"metallicFactor":0.5454543828964233,
				"roughnessFactor":0.3545454740524292
			}
		},
		{
			"doubleSided":true,
			"name":"steel balls",
			"pbrMetallicRoughness":{
				"baseColorFactor":[
					0.03310474008321762,
					0.033104751259088516,
					0.033104781061410904,
					1
				],
				"metallicFactor":0.5499998331069946,
				"roughnessFactor":0.35499998927116394
			}
		}
	],
	"meshes":[
		{
			"name":"32221_1",
			"primitives":[
				{
					"attributes":{
						"POSITION":0,
						"NORMAL":1
					},
					"indices":2,
					"material":0
				}
			]
		},
		{
			"name":"32221_2",
			"primitives":[
				{
					"attributes":{
						"POSITION":3,
						"NORMAL":4
					},
					"indices":5,
					"material":1
				}
			]
		},
		{
			"name":"32221_3",
			"primitives":[
				{
					"attributes":{
						"POSITION":6,
						"NORMAL":7
					},
					"indices":8,
					"material":0
				}
			]
		}
	],
	"accessors":[
		{
			"bufferView":0,
			"componentType":5126,
			"count":1048,
			"max":[
				53,
				74.25,
				74.04199981689453
			],
			"min":[
				3,
				-74.25,
				-74.04199981689453
			],
			"type":"VEC3"
		},
		{
			"bufferView":1,
			"componentType":5126,
			"count":1048,
			"type":"VEC3"
		},
		{
			"bufferView":2,
			"componentType":5123,
			"count":2784,
			"type":"SCALAR"
		},
		{
			"bufferView":3,
			"componentType":5126,
			"count":5125,
			"max":[
				45.68600082397461,
				88.54100036621094,
				88.54100036621094
			],
			"min":[
				1.3660000562667847,
				-88.54100036621094,
				-88.54100036621094
			],
			"type":"VEC3"
		},
		{
			"bufferView":4,
			"componentType":5126,
			"count":5125,
			"type":"VEC3"
		},
		{
			"bufferView":5,
			"componentType":5123,
			"count":8568,
			"type":"SCALAR"
		},
		{
			"bufferView":6,
			"componentType":5126,
			"count":759,
			"max":[
				43,
				95,
				94.73400115966797
			],
			"min":[
				0,
				-95,
				-94.73400115966797
			],
			"type":"VEC3"
		},
		{
			"bufferView":7,
			"componentType":5126,
			"count":759,
			"type":"VEC3"
		},
		{
			"bufferView":8,
			"componentType":5123,
			"count":2244,
			"type":"SCALAR"
		}
	],
	"bufferViews":[
		{
			"buffer":0,
			"byteLength":12576,
			"byteOffset":0,
			"target":34962
		},
		{
			"buffer":0,
			"byteLength":12576,
			"byteOffset":12576,
			"target":34962
		},
		{
			"buffer":0,
			"byteLength":5568,
			"byteOffset":25152,
			"target":34963
		},
		{
			"buffer":0,
			"byteLength":61500,
			"byteOffset":30720,
			"target":34962
		},
		{
			"buffer":0,
			"byteLength":61500,
			"byteOffset":92220,
			"target":34962
		},
		{
			"buffer":0,
			"byteLength":17136,
			"byteOffset":153720,
			"target":34963
		},
		{
			"buffer":0,
			"byteLength":9108,
			"byteOffset":170856,
			"target":34962
		},
		{
			"buffer":0,
			"byteLength":9108,
			"byteOffset":179964,
			"target":34962
		},
		{
			"buffer":0,
			"byteLength":4488,
			"byteOffset":189072,
			"target":34963
		}
	],
	"buffers":[
		{
			"byteLength":193560,
			"uri":"data:application/octet-stream;base64,"
		}
	]
}
