{
	"asset":{
		"generator":"Khronos glTF Blender I/O v3.5.30",
		"version":"2.0"
	},
	"scene":0,
	"scenes":[
		{
			"name":"Scene",
			"nodes":[
				0,
				1,
				2
			]
		}
	],
	"nodes":[
		{
			"mesh":0,
			"name":"bearing_m12649-m12610_1",
			"rotation":[
				0.49705052375793457,
				-0.5029321908950806,
				0.5029321312904358,
				0.49705055356025696
			],
			"scale":[
				0.35267335176467896,
				0.35267335176467896,
				0.35267335176467896
			],
			"translation":[
				0,
				0,
				-2.900716543197632
			]
		},
		{
			"mesh":1,
			"name":"bearing_m12649-m12610_2",
			"rotation":[
				0.49705052375793457,
				-0.5029321908950806,
				0.5029321312904358,
				0.49705055356025696
			],
			"scale":[
				0.35267335176467896,
				0.35267335176467896,
				0.35267335176467896
			],
			"translation":[
				0,
				0,
				-2.900716543197632
			]
		},
		{
			"mesh":2,
			"name":"bearing_m12649-m12610_3",
			"rotation":[
				0.49705052375793457,
				-0.5029321908950806,
				0.5029321312904358,
				0.49705055356025696
			],
			"scale":[
				0.35267335176467896,
				0.35267335176467896,
				0.35267335176467896
			],
			"translation":[
				0,
				0,
				-2.900716543197632
			]
		}
	],
	"materials":[
		{
			"doubleSided":true,
			"name":"Steel",
			"pbrMetallicRoughness":{
				"baseColorFactor":[
					0.09084159880876541,
					0.0908416211605072,
					0.09084171056747437,
					1
				],
				"metallicFactor":0.5454543828964233,
				"roughnessFactor":0.3545454740524292
			}
		},
		{
			"doubleSided":true,
			"name":"steel balls",
			"pbrMetallicRoughness":{
				"baseColorFactor":[
					0.03310474008321762,
					0.033104751259088516,
					0.033104781061410904,
					1
				],
				"metallicFactor":0.5499998331069946,
				"roughnessFactor":0.35499998927116394
			}
		}
	],
	"meshes":[
		{
			"name":"bearing_m12649-m12610_1",
			"primitives":[
				{
					"attributes":{
						"POSITION":0,
						"NORMAL":1
					},
					"indices":2,
					"material":0
				}
			]
		},
		{
			"name":"bearing_m12649-m12610_2",
			"primitives":[
				{
					"attributes":{
						"POSITION":3,
						"NORMAL":4
					},
					"indices":5,
					"material":0
				}
			]
		},
		{
			"name":"bearing_m12649-m12610_3",
			"primitives":[
				{
					"attributes":{
						"POSITION":6,
						"NORMAL":7
					},
					"indices":8,
					"material":1
				}
			]
		}
	],
	"accessors":[
		{
			"bufferView":0,
			"componentType":5126,
			"count":1744,
			"max":[
				17.525999069213867,
				16.827999114990234,
				16.827999114990234
			],
			"min":[
				-0.7620000243186951,
				-16.81599998474121,
				-16.827999114990234
			],
			"type":"VEC3"
		},
		{
			"bufferView":1,
			"componentType":5126,
			"count":1744,
			"type":"VEC3"
		},
		{
			"bufferView":2,
			"componentType":5123,
			"count":6330,
			"type":"SCALAR"
		},
		{
			"bufferView":3,
			"componentType":5126,
			"count":978,
			"max":[
				13.970000267028809,
				25.00200080871582,
				25.00200080871582
			],
			"min":[
				0,
				-25.00200080871582,
				-25.00200080871582
			],
			"type":"VEC3"
		},
		{
			"bufferView":4,
			"componentType":5126,
			"count":978,
			"type":"VEC3"
		},
		{
			"bufferView":5,
			"componentType":5123,
			"count":3540,
			"type":"SCALAR"
		},
		{
			"bufferView":6,
			"componentType":5126,
			"count":5050,
			"max":[
				14.482999801635742,
				21.94099998474121,
				22.40999984741211
			],
			"min":[
				0.9359999895095825,
				-21.94099998474121,
				-22.40999984741211
			],
			"type":"VEC3"
		},
		{
			"bufferView":7,
			"componentType":5126,
			"count":5050,
			"type":"VEC3"
		},
		{
			"bufferView":8,
			"componentType":5123,
			"count":9714,
			"type":"SCALAR"
		}
	],
	"bufferViews":[
		{
			"buffer":0,
			"byteLength":20928,
			"byteOffset":0,
			"target":34962
		},
		{
			"buffer":0,
			"byteLength":20928,
			"byteOffset":20928,
			"target":34962
		},
		{
			"buffer":0,
			"byteLength":12660,
			"byteOffset":41856,
			"target":34963
		},
		{
			"buffer":0,
			"byteLength":11736,
			"byteOffset":54516,
			"target":34962
		},
		{
			"buffer":0,
			"byteLength":11736,
			"byteOffset":66252,
			"target":34962
		},
		{
			"buffer":0,
			"byteLength":7080,
			"byteOffset":77988,
			"target":34963
		},
		{
			"buffer":0,
			"byteLength":60600,
			"byteOffset":85068,
			"target":34962
		},
		{
			"buffer":0,
			"byteLength":60600,
			"byteOffset":145668,
			"target":34962
		},
		{
			"buffer":0,
			"byteLength":19428,
			"byteOffset":206268,
			"target":34963
		}
	],
	"buffers":[
		{
			"byteLength":225696,
			"uri":"data:application/octet-stream;base64,"
		}
	]
}
