{
	"asset":{
		"generator":"Khronos glTF Blender I/O v3.5.30",
		"version":"2.0"
	},
	"extensionsUsed":[
		"KHR_materials_specular",
		"KHR_materials_ior"
	],
	"scene":0,
	"scenes":[
		{
			"name":"Scene",
			"nodes":[
				0,
				1,
				2,
				3,
				4,
				5,
				6,
				7,
				8,
				9,
				10,
				11,
				12,
				13,
				14,
				15,
				16
			]
		}
	],
	"nodes":[
		{
			"mesh":0,
			"name":"6800zz_1",
			"rotation":[
				0.5032923817634583,
				0.49668580293655396,
				-0.49668577313423157,
				0.5032923817634583
			],
			"scale":[
				0.9055531620979309,
				0.9055531620979309,
				0.9055531620979309
			],
			"translation":[
				0,
				0,
				2.209197998046875
			]
		},
		{
			"mesh":1,
			"name":"6800zz_10",
			"rotation":[
				0.5032923817634583,
				0.49668580293655396,
				-0.49668577313423157,
				0.5032923817634583
			],
			"scale":[
				0.9055531620979309,
				0.9055531620979309,
				0.9055531620979309
			],
			"translation":[
				0,
				0,
				2.209197998046875
			]
		},
		{
			"mesh":2,
			"name":"6800zz_11",
			"rotation":[
				0.5032923817634583,
				0.49668580293655396,
				-0.49668577313423157,
				0.5032923817634583
			],
			"scale":[
				0.9055531620979309,
				0.9055531620979309,
				0.9055531620979309
			],
			"translation":[
				0,
				0,
				2.209197998046875
			]
		},
		{
			"mesh":3,
			"name":"6800zz_12",
			"rotation":[
				0.5032923817634583,
				0.49668580293655396,
				-0.49668577313423157,
				0.5032923817634583
			],
			"scale":[
				0.9055531620979309,
				0.9055531620979309,
				0.9055531620979309
			],
			"translation":[
				0,
				0,
				2.209197998046875
			]
		},
		{
			"mesh":4,
			"name":"6800zz_13",
			"rotation":[
				0.5032923817634583,
				0.49668580293655396,
				-0.49668577313423157,
				0.5032923817634583
			],
			"scale":[
				0.9055531620979309,
				0.9055531620979309,
				0.9055531620979309
			],
			"translation":[
				0,
				0,
				2.209197998046875
			]
		},
		{
			"mesh":5,
			"name":"6800zz_14",
			"rotation":[
				0.5032923817634583,
				0.49668580293655396,
				-0.49668577313423157,
				0.5032923817634583
			],
			"scale":[
				0.9055531620979309,
				0.9055531620979309,
				0.9055531620979309
			],
			"translation":[
				0,
				0,
				2.209197998046875
			]
		},
		{
			"mesh":6,
			"name":"6800zz_15",
			"rotation":[
				0.5032923817634583,
				0.49668580293655396,
				-0.49668577313423157,
				0.5032923817634583
			],
			"scale":[
				0.9055531620979309,
				0.9055531620979309,
				0.9055531620979309
			],
			"translation":[
				0,
				0,
				2.209197998046875
			]
		},
		{
			"mesh":7,
			"name":"6800zz_16",
			"rotation":[
				0.5032923817634583,
				0.49668580293655396,
				-0.49668577313423157,
				0.5032923817634583
			],
			"scale":[
				0.9055531620979309,
				0.9055531620979309,
				0.9055531620979309
			],
			"translation":[
				0,
				0,
				2.209197998046875
			]
		},
		{
			"mesh":8,
			"name":"6800zz_17",
			"rotation":[
				0.5032923817634583,
				0.49668580293655396,
				-0.49668577313423157,
				0.5032923817634583
			],
			"scale":[
				0.9055531620979309,
				0.9055531620979309,
				0.9055531620979309
			],
			"translation":[
				0,
				0,
				2.209197998046875
			]
		},
		{
			"mesh":9,
			"name":"6800zz_2",
			"rotation":[
				0.5032923817634583,
				0.49668580293655396,
				-0.49668577313423157,
				0.5032923817634583
			],
			"scale":[
				0.9055531620979309,
				0.9055531620979309,
				0.9055531620979309
			],
			"translation":[
				0,
				0,
				2.209197998046875
			]
		},
		{
			"mesh":10,
			"name":"6800zz_3",
			"rotation":[
				0.5032923817634583,
				0.49668580293655396,
				-0.49668577313423157,
				0.5032923817634583
			],
			"scale":[
				0.9055531620979309,
				0.9055531620979309,
				0.9055531620979309
			],
			"translation":[
				0,
				0,
				2.209197998046875
			]
		},
		{
			"mesh":11,
			"name":"6800zz_4",
			"rotation":[
				0.5032923817634583,
				0.49668580293655396,
				-0.49668577313423157,
				0.5032923817634583
			],
			"scale":[
				0.9055531620979309,
				0.9055531620979309,
				0.9055531620979309
			],
			"translation":[
				0,
				0,
				2.209197998046875
			]
		},
		{
			"mesh":12,
			"name":"6800zz_5",
			"rotation":[
				0.5032923817634583,
				0.49668580293655396,
				-0.49668577313423157,
				0.5032923817634583
			],
			"scale":[
				0.9055531620979309,
				0.9055531620979309,
				0.9055531620979309
			],
			"translation":[
				0,
				0,
				2.209197998046875
			]
		},
		{
			"mesh":13,
			"name":"6800zz_6",
			"rotation":[
				0.5032923817634583,
				0.49668580293655396,
				-0.49668577313423157,
				0.5032923817634583
			],
			"scale":[
				0.9055531620979309,
				0.9055531620979309,
				0.9055531620979309
			],
			"translation":[
				0,
				0,
				2.209197998046875
			]
		},
		{
			"mesh":14,
			"name":"6800zz_7",
			"rotation":[
				0.5032923817634583,
				0.49668580293655396,
				-0.49668577313423157,
				0.5032923817634583
			],
			"scale":[
				0.9055531620979309,
				0.9055531620979309,
				0.9055531620979309
			],
			"translation":[
				0,
				0,
				2.209197998046875
			]
		},
		{
			"mesh":15,
			"name":"6800zz_8",
			"rotation":[
				0.5032923817634583,
				0.49668580293655396,
				-0.49668577313423157,
				0.5032923817634583
			],
			"scale":[
				0.9055531620979309,
				0.9055531620979309,
				0.9055531620979309
			],
			"translation":[
				0,
				0,
				2.209197998046875
			]
		},
		{
			"mesh":16,
			"name":"6800zz_9",
			"rotation":[
				0.5032923817634583,
				0.49668580293655396,
				-0.49668577313423157,
				0.5032923817634583
			],
			"scale":[
				0.9055531620979309,
				0.9055531620979309,
				0.9055531620979309
			],
			"translation":[
				0,
				0,
				2.209197998046875
			]
		}
	],
	"materials":[
		{
			"doubleSided":true,
			"name":"Steel.001",
			"pbrMetallicRoughness":{
				"baseColorFactor":[
					0.09084159880876541,
					0.0908416211605072,
					0.09084171056747437,
					1
				],
				"metallicFactor":0.5454543828964233,
				"roughnessFactor":0.3545454740524292
			}
		},
		{
			"doubleSided":true,
			"extensions":{
				"KHR_materials_specular":{
					"specularColorFactor":[
						0,
						0,
						0
					]
				},
				"KHR_materials_ior":{
					"ior":1.4500000476837158
				}
			},
			"name":"6800zz_color_1.001",
			"pbrMetallicRoughness":{
				"baseColorFactor":[
					0.800000011920929,
					0.800000011920929,
					0.800000011920929,
					1
				],
				"metallicFactor":0
			}
		},
		{
			"doubleSided":true,
			"name":"Rubber.001",
			"pbrMetallicRoughness":{
				"baseColorFactor":[
					0.014836256392300129,
					0.014836256392300129,
					0.014836256392300129,
					1
				],
				"metallicFactor":0
			}
		}
	],
	"meshes":[
		{
			"name":"6800zz_1.001",
			"primitives":[
				{
					"attributes":{
						"POSITION":0,
						"NORMAL":1
					},
					"indices":2,
					"material":0
				}
			]
		},
		{
			"name":"6800zz_10.001",
			"primitives":[
				{
					"attributes":{
						"POSITION":3,
						"NORMAL":4
					},
					"indices":5,
					"material":1
				}
			]
		},
		{
			"name":"6800zz_11.001",
			"primitives":[
				{
					"attributes":{
						"POSITION":6,
						"NORMAL":7
					},
					"indices":8,
					"material":1
				}
			]
		},
		{
			"name":"6800zz_12.001",
			"primitives":[
				{
					"attributes":{
						"POSITION":9,
						"NORMAL":10
					},
					"indices":11,
					"material":1
				}
			]
		},
		{
			"name":"6800zz_13.001",
			"primitives":[
				{
					"attributes":{
						"POSITION":12,
						"NORMAL":13
					},
					"indices":14,
					"material":1
				}
			]
		},
		{
			"name":"6800zz_14.001",
			"primitives":[
				{
					"attributes":{
						"POSITION":15,
						"NORMAL":16
					},
					"indices":17,
					"material":1
				}
			]
		},
		{
			"name":"6800zz_15.001",
			"primitives":[
				{
					"attributes":{
						"POSITION":18,
						"NORMAL":19
					},
					"indices":20,
					"material":1
				}
			]
		},
		{
			"name":"6800zz_16.001",
			"primitives":[
				{
					"attributes":{
						"POSITION":21,
						"NORMAL":22
					},
					"indices":23,
					"material":1
				}
			]
		},
		{
			"name":"6800zz_17.001",
			"primitives":[
				{
					"attributes":{
						"POSITION":24,
						"NORMAL":25
					},
					"indices":26,
					"material":2
				}
			]
		},
		{
			"name":"6800zz_2.001",
			"primitives":[
				{
					"attributes":{
						"POSITION":27,
						"NORMAL":28
					},
					"indices":29,
					"material":2
				}
			]
		},
		{
			"name":"6800zz_3.001",
			"primitives":[
				{
					"attributes":{
						"POSITION":30,
						"NORMAL":31
					},
					"indices":32,
					"material":0
				}
			]
		},
		{
			"name":"6800zz_4.001",
			"primitives":[
				{
					"attributes":{
						"POSITION":33,
						"NORMAL":34
					},
					"indices":35,
					"material":1
				}
			]
		},
		{
			"name":"6800zz_5.001",
			"primitives":[
				{
					"attributes":{
						"POSITION":36,
						"NORMAL":37
					},
					"indices":38,
					"material":1
				}
			]
		},
		{
			"name":"6800zz_6.001",
			"primitives":[
				{
					"attributes":{
						"POSITION":39,
						"NORMAL":40
					},
					"indices":41,
					"material":1
				}
			]
		},
		{
			"name":"6800zz_7.001",
			"primitives":[
				{
					"attributes":{
						"POSITION":42,
						"NORMAL":43
					},
					"indices":44,
					"material":1
				}
			]
		},
		{
			"name":"6800zz_8.001",
			"primitives":[
				{
					"attributes":{
						"POSITION":45,
						"NORMAL":46
					},
					"indices":47,
					"material":1
				}
			]
		},
		{
			"name":"6800zz_9.001",
			"primitives":[
				{
					"attributes":{
						"POSITION":48,
						"NORMAL":49
					},
					"indices":50,
					"material":1
				}
			]
		}
	],
	"accessors":[
		{
			"bufferView":0,
			"componentType":5126,
			"count":2308,
			"max":[
				5,
				9.5,
				9.472999572753906
			],
			"min":[
				0,
				-9.5,
				-9.472999572753906
			],
			"type":"VEC3"
		},
		{
			"bufferView":1,
			"componentType":5126,
			"count":2308,
			"type":"VEC3"
		},
		{
			"bufferView":2,
			"componentType":5123,
			"count":5886,
			"type":"SCALAR"
		},
		{
			"bufferView":3,
			"componentType":5126,
			"count":1907,
			"max":[
				3.625,
				8.15999984741211,
				-0.6179999709129333
			],
			"min":[
				1.375,
				5.918000221252441,
				-2.8519999980926514
			],
			"type":"VEC3"
		},
		{
			"bufferView":4,
			"componentType":5126,
			"count":1907,
			"type":"VEC3"
		},
		{
			"bufferView":5,
			"componentType":5123,
			"count":4104,
			"type":"SCALAR"
		},
		{
			"bufferView":6,
			"componentType":5126,
			"count":1892,
			"max":[
				3.625,
				8.15999984741211,
				2.8519999980926514
			],
			"min":[
				1.375,
				5.918000221252441,
				0.6179999709129333
			],
			"type":"VEC3"
		},
		{
			"bufferView":7,
			"componentType":5126,
			"count":1892,
			"type":"VEC3"
		},
		{
			"bufferView":8,
			"componentType":5123,
			"count":4104,
			"type":"SCALAR"
		},
		{
			"bufferView":9,
			"componentType":5126,
			"count":1956,
			"max":[
				3.625,
				6.547999858856201,
				5.925000190734863
			],
			"min":[
				1.375,
				4.306000232696533,
				3.690000057220459
			],
			"type":"VEC3"
		},
		{
			"bufferView":10,
			"componentType":5126,
			"count":1956,
			"type":"VEC3"
		},
		{
			"bufferView":11,
			"componentType":5123,
			"count":4104,
			"type":"SCALAR"
		},
		{
			"bufferView":12,
			"componentType":5126,
			"count":1902,
			"max":[
				3.625,
				3.691999912261963,
				7.895999908447266
			],
			"min":[
				1.375,
				1.4500000476837158,
				5.6620001792907715
			],
			"type":"VEC3"
		},
		{
			"bufferView":13,
			"componentType":5126,
			"count":1902,
			"type":"VEC3"
		},
		{
			"bufferView":14,
			"componentType":5123,
			"count":4104,
			"type":"SCALAR"
		},
		{
			"bufferView":15,
			"componentType":5126,
			"count":1867,
			"max":[
				3.625,
				0.24699999392032623,
				8.314000129699707
			],
			"min":[
				1.375,
				-1.9950000047683716,
				6.079999923706055
			],
			"type":"VEC3"
		},
		{
			"bufferView":16,
			"componentType":5126,
			"count":1867,
			"type":"VEC3"
		},
		{
			"bufferView":17,
			"componentType":5123,
			"count":4104,
			"type":"SCALAR"
		},
		{
			"bufferView":18,
			"componentType":5126,
			"count":1885,
			"max":[
				3.625,
				-2.996999979019165,
				7.084000110626221
			],
			"min":[
				1.375,
				-5.239999771118164,
				4.848999977111816
			],
			"type":"VEC3"
		},
		{
			"bufferView":19,
			"componentType":5126,
			"count":1885,
			"type":"VEC3"
		},
		{
			"bufferView":20,
			"componentType":5123,
			"count":4104,
			"type":"SCALAR"
		},
		{
			"bufferView":21,
			"componentType":5126,
			"count":1900,
			"max":[
				3.625,
				-5.297999858856201,
				4.486999988555908
			],
			"min":[
				1.375,
				-7.540999889373779,
				2.252000093460083
			],
			"type":"VEC3"
		},
		{
			"bufferView":22,
			"componentType":5126,
			"count":1900,
			"type":"VEC3"
		},
		{
			"bufferView":23,
			"componentType":5123,
			"count":4104,
			"type":"SCALAR"
		},
		{
			"bufferView":24,
			"componentType":5126,
			"count":346,
			"max":[
				0.23000000417232513,
				8.574999809265137,
				8.550999641418457
			],
			"min":[
				0.057999998331069946,
				-8.574999809265137,
				-8.550999641418457
			],
			"type":"VEC3"
		},
		{
			"bufferView":25,
			"componentType":5126,
			"count":346,
			"type":"VEC3"
		},
		{
			"bufferView":26,
			"componentType":5123,
			"count":936,
			"type":"SCALAR"
		},
		{
			"bufferView":27,
			"componentType":5126,
			"count":342,
			"max":[
				4.941999912261963,
				8.574999809265137,
				8.550999641418457
			],
			"min":[
				4.769999980926514,
				-8.574999809265137,
				-8.550999641418457
			],
			"type":"VEC3"
		},
		{
			"bufferView":28,
			"componentType":5126,
			"count":342,
			"type":"VEC3"
		},
		{
			"bufferView":29,
			"componentType":5123,
			"count":936,
			"type":"SCALAR"
		},
		{
			"bufferView":30,
			"componentType":5126,
			"count":2049,
			"max":[
				5,
				6.366000175476074,
				6.369999885559082
			],
			"min":[
				0,
				-6.366000175476074,
				-6.369999885559082
			],
			"type":"VEC3"
		},
		{
			"bufferView":31,
			"componentType":5126,
			"count":2049,
			"type":"VEC3"
		},
		{
			"bufferView":32,
			"componentType":5123,
			"count":5718,
			"type":"SCALAR"
		},
		{
			"bufferView":33,
			"componentType":5126,
			"count":1888,
			"max":[
				3.625,
				-6.129000186920166,
				1.1169999837875366
			],
			"min":[
				1.375,
				-8.371000289916992,
				-1.1169999837875366
			],
			"type":"VEC3"
		},
		{
			"bufferView":34,
			"componentType":5126,
			"count":1888,
			"type":"VEC3"
		},
		{
			"bufferView":35,
			"componentType":5123,
			"count":4104,
			"type":"SCALAR"
		},
		{
			"bufferView":36,
			"componentType":5126,
			"count":1893,
			"max":[
				3.625,
				-5.297999858856201,
				-2.252000093460083
			],
			"min":[
				1.375,
				-7.540999889373779,
				-4.486999988555908
			],
			"type":"VEC3"
		},
		{
			"bufferView":37,
			"componentType":5126,
			"count":1893,
			"type":"VEC3"
		},
		{
			"bufferView":38,
			"componentType":5123,
			"count":4104,
			"type":"SCALAR"
		},
		{
			"bufferView":39,
			"componentType":5126,
			"count":1880,
			"max":[
				3.625,
				-2.996999979019165,
				-4.848999977111816
			],
			"min":[
				1.375,
				-5.239999771118164,
				-7.084000110626221
			],
			"type":"VEC3"
		},
		{
			"bufferView":40,
			"componentType":5126,
			"count":1880,
			"type":"VEC3"
		},
		{
			"bufferView":41,
			"componentType":5123,
			"count":4104,
			"type":"SCALAR"
		},
		{
			"bufferView":42,
			"componentType":5126,
			"count":1904,
			"max":[
				3.625,
				0.24699999392032623,
				-6.079999923706055
			],
			"min":[
				1.375,
				-1.9950000047683716,
				-8.314000129699707
			],
			"type":"VEC3"
		},
		{
			"bufferView":43,
			"componentType":5126,
			"count":1904,
			"type":"VEC3"
		},
		{
			"bufferView":44,
			"componentType":5123,
			"count":4104,
			"type":"SCALAR"
		},
		{
			"bufferView":45,
			"componentType":5126,
			"count":1855,
			"max":[
				3.625,
				3.691999912261963,
				-5.6620001792907715
			],
			"min":[
				1.375,
				1.4500000476837158,
				-7.895999908447266
			],
			"type":"VEC3"
		},
		{
			"bufferView":46,
			"componentType":5126,
			"count":1855,
			"type":"VEC3"
		},
		{
			"bufferView":47,
			"componentType":5123,
			"count":4104,
			"type":"SCALAR"
		},
		{
			"bufferView":48,
			"componentType":5126,
			"count":1923,
			"max":[
				3.625,
				6.547999858856201,
				-3.690000057220459
			],
			"min":[
				1.375,
				4.306000232696533,
				-5.925000190734863
			],
			"type":"VEC3"
		},
		{
			"bufferView":49,
			"componentType":5126,
			"count":1923,
			"type":"VEC3"
		},
		{
			"bufferView":50,
			"componentType":5123,
			"count":4104,
			"type":"SCALAR"
		}
	],
	"bufferViews":[
		{
			"buffer":0,
			"byteLength":27696,
			"byteOffset":0,
			"target":34962
		},
		{
			"buffer":0,
			"byteLength":27696,
			"byteOffset":27696,
			"target":34962
		},
		{
			"buffer":0,
			"byteLength":11772,
			"byteOffset":55392,
			"target":34963
		},
		{
			"buffer":0,
			"byteLength":22884,
			"byteOffset":67164,
			"target":34962
		},
		{
			"buffer":0,
			"byteLength":22884,
			"byteOffset":90048,
			"target":34962
		},
		{
			"buffer":0,
			"byteLength":8208,
			"byteOffset":112932,
			"target":34963
		},
		{
			"buffer":0,
			"byteLength":22704,
			"byteOffset":121140,
			"target":34962
		},
		{
			"buffer":0,
			"byteLength":22704,
			"byteOffset":143844,
			"target":34962
		},
		{
			"buffer":0,
			"byteLength":8208,
			"byteOffset":166548,
			"target":34963
		},
		{
			"buffer":0,
			"byteLength":23472,
			"byteOffset":174756,
			"target":34962
		},
		{
			"buffer":0,
			"byteLength":23472,
			"byteOffset":198228,
			"target":34962
		},
		{
			"buffer":0,
			"byteLength":8208,
			"byteOffset":221700,
			"target":34963
		},
		{
			"buffer":0,
			"byteLength":22824,
			"byteOffset":229908,
			"target":34962
		},
		{
			"buffer":0,
			"byteLength":22824,
			"byteOffset":252732,
			"target":34962
		},
		{
			"buffer":0,
			"byteLength":8208,
			"byteOffset":275556,
			"target":34963
		},
		{
			"buffer":0,
			"byteLength":22404,
			"byteOffset":283764,
			"target":34962
		},
		{
			"buffer":0,
			"byteLength":22404,
			"byteOffset":306168,
			"target":34962
		},
		{
			"buffer":0,
			"byteLength":8208,
			"byteOffset":328572,
			"target":34963
		},
		{
			"buffer":0,
			"byteLength":22620,
			"byteOffset":336780,
			"target":34962
		},
		{
			"buffer":0,
			"byteLength":22620,
			"byteOffset":359400,
			"target":34962
		},
		{
			"buffer":0,
			"byteLength":8208,
			"byteOffset":382020,
			"target":34963
		},
		{
			"buffer":0,
			"byteLength":22800,
			"byteOffset":390228,
			"target":34962
		},
		{
			"buffer":0,
			"byteLength":22800,
			"byteOffset":413028,
			"target":34962
		},
		{
			"buffer":0,
			"byteLength":8208,
			"byteOffset":435828,
			"target":34963
		},
		{
			"buffer":0,
			"byteLength":4152,
			"byteOffset":444036,
			"target":34962
		},
		{
			"buffer":0,
			"byteLength":4152,
			"byteOffset":448188,
			"target":34962
		},
		{
			"buffer":0,
			"byteLength":1872,
			"byteOffset":452340,
			"target":34963
		},
		{
			"buffer":0,
			"byteLength":4104,
			"byteOffset":454212,
			"target":34962
		},
		{
			"buffer":0,
			"byteLength":4104,
			"byteOffset":458316,
			"target":34962
		},
		{
			"buffer":0,
			"byteLength":1872,
			"byteOffset":462420,
			"target":34963
		},
		{
			"buffer":0,
			"byteLength":24588,
			"byteOffset":464292,
			"target":34962
		},
		{
			"buffer":0,
			"byteLength":24588,
			"byteOffset":488880,
			"target":34962
		},
		{
			"buffer":0,
			"byteLength":11436,
			"byteOffset":513468,
			"target":34963
		},
		{
			"buffer":0,
			"byteLength":22656,
			"byteOffset":524904,
			"target":34962
		},
		{
			"buffer":0,
			"byteLength":22656,
			"byteOffset":547560,
			"target":34962
		},
		{
			"buffer":0,
			"byteLength":8208,
			"byteOffset":570216,
			"target":34963
		},
		{
			"buffer":0,
			"byteLength":22716,
			"byteOffset":578424,
			"target":34962
		},
		{
			"buffer":0,
			"byteLength":22716,
			"byteOffset":601140,
			"target":34962
		},
		{
			"buffer":0,
			"byteLength":8208,
			"byteOffset":623856,
			"target":34963
		},
		{
			"buffer":0,
			"byteLength":22560,
			"byteOffset":632064,
			"target":34962
		},
		{
			"buffer":0,
			"byteLength":22560,
			"byteOffset":654624,
			"target":34962
		},
		{
			"buffer":0,
			"byteLength":8208,
			"byteOffset":677184,
			"target":34963
		},
		{
			"buffer":0,
			"byteLength":22848,
			"byteOffset":685392,
			"target":34962
		},
		{
			"buffer":0,
			"byteLength":22848,
			"byteOffset":708240,
			"target":34962
		},
		{
			"buffer":0,
			"byteLength":8208,
			"byteOffset":731088,
			"target":34963
		},
		{
			"buffer":0,
			"byteLength":22260,
			"byteOffset":739296,
			"target":34962
		},
		{
			"buffer":0,
			"byteLength":22260,
			"byteOffset":761556,
			"target":34962
		},
		{
			"buffer":0,
			"byteLength":8208,
			"byteOffset":783816,
			"target":34963
		},
		{
			"buffer":0,
			"byteLength":23076,
			"byteOffset":792024,
			"target":34962
		},
		{
			"buffer":0,
			"byteLength":23076,
			"byteOffset":815100,
			"target":34962
		},
		{
			"buffer":0,
			"byteLength":8208,
			"byteOffset":838176,
			"target":34963
		}
	],
	"buffers":[
		{
			"byteLength":846384,
			"uri":"data:application/octet-stream;base64,"
		}
	]
}
