{
	"asset":{
		"generator":"Khronos glTF Blender I/O v3.5.30",
		"version":"2.0"
	},
	"scene":0,
	"scenes":[
		{
			"name":"Scene",
			"nodes":[
				0,
				1,
				2
			]
		}
	],
	"nodes":[
		{
			"mesh":0,
			"name":"32204_1",
			"rotation":[
				0.4951564371585846,
				0.5047972202301025,
				-0.5047971606254578,
				0.495156466960907
			],
			"scale":[
				0.36726701259613037,
				0.36726701259613037,
				0.36726701259613037
			],
			"translation":[
				0,
				0,
				3.234325647354126
			]
		},
		{
			"mesh":1,
			"name":"32204_2",
			"rotation":[
				0.4951564371585846,
				0.5047972202301025,
				-0.5047971606254578,
				0.495156466960907
			],
			"scale":[
				0.36726701259613037,
				0.36726701259613037,
				0.36726701259613037
			],
			"translation":[
				0,
				0,
				3.234325647354126
			]
		},
		{
			"mesh":2,
			"name":"32204_3",
			"rotation":[
				0.4951564371585846,
				0.5047972202301025,
				-0.5047971606254578,
				0.495156466960907
			],
			"scale":[
				0.36726701259613037,
				0.36726701259613037,
				0.36726701259613037
			],
			"translation":[
				0,
				0,
				3.234325647354126
			]
		}
	],
	"materials":[
		{
			"doubleSided":true,
			"name":"Steel",
			"pbrMetallicRoughness":{
				"baseColorFactor":[
					0.09084159880876541,
					0.0908416211605072,
					0.09084171056747437,
					1
				],
				"metallicFactor":0.5454543828964233,
				"roughnessFactor":0.3545454740524292
			}
		},
		{
			"doubleSided":true,
			"name":"steel balls",
			"pbrMetallicRoughness":{
				"baseColorFactor":[
					0.03310474008321762,
					0.033104751259088516,
					0.033104781061410904,
					1
				],
				"metallicFactor":0.5499998331069946,
				"roughnessFactor":0.35499998927116394
			}
		}
	],
	"meshes":[
		{
			"name":"32204_1",
			"primitives":[
				{
					"attributes":{
						"POSITION":0,
						"NORMAL":1
					},
					"indices":2,
					"material":0
				}
			]
		},
		{
			"name":"32204_2",
			"primitives":[
				{
					"attributes":{
						"POSITION":3,
						"NORMAL":4
					},
					"indices":5,
					"material":1
				}
			]
		},
		{
			"name":"32204_3",
			"primitives":[
				{
					"attributes":{
						"POSITION":6,
						"NORMAL":7
					},
					"indices":8,
					"material":0
				}
			]
		}
	],
	"accessors":[
		{
			"bufferView":0,
			"componentType":5126,
			"count":1048,
			"max":[
				19.25,
				16.700000762939453,
				16.687999725341797
			],
			"min":[
				1.25,
				-16.700000762939453,
				-16.687999725341797
			],
			"type":"VEC3"
		},
		{
			"bufferView":1,
			"componentType":5126,
			"count":1048,
			"type":"VEC3"
		},
		{
			"bufferView":2,
			"componentType":5123,
			"count":2718,
			"type":"SCALAR"
		},
		{
			"bufferView":3,
			"componentType":5126,
			"count":3670,
			"max":[
				15.651000022888184,
				20.52199935913086,
				20.961999893188477
			],
			"min":[
				0.8100000023841858,
				-20.52199935913086,
				-20.961999893188477
			],
			"type":"VEC3"
		},
		{
			"bufferView":4,
			"componentType":5126,
			"count":3670,
			"type":"VEC3"
		},
		{
			"bufferView":5,
			"componentType":5123,
			"count":6384,
			"type":"SCALAR"
		},
		{
			"bufferView":6,
			"componentType":5126,
			"count":752,
			"max":[
				15,
				23.5,
				23.43400001525879
			],
			"min":[
				0,
				-23.5,
				-23.43400001525879
			],
			"type":"VEC3"
		},
		{
			"bufferView":7,
			"componentType":5126,
			"count":752,
			"type":"VEC3"
		},
		{
			"bufferView":8,
			"componentType":5123,
			"count":2232,
			"type":"SCALAR"
		}
	],
	"bufferViews":[
		{
			"buffer":0,
			"byteLength":12576,
			"byteOffset":0,
			"target":34962
		},
		{
			"buffer":0,
			"byteLength":12576,
			"byteOffset":12576,
			"target":34962
		},
		{
			"buffer":0,
			"byteLength":5436,
			"byteOffset":25152,
			"target":34963
		},
		{
			"buffer":0,
			"byteLength":44040,
			"byteOffset":30588,
			"target":34962
		},
		{
			"buffer":0,
			"byteLength":44040,
			"byteOffset":74628,
			"target":34962
		},
		{
			"buffer":0,
			"byteLength":12768,
			"byteOffset":118668,
			"target":34963
		},
		{
			"buffer":0,
			"byteLength":9024,
			"byteOffset":131436,
			"target":34962
		},
		{
			"buffer":0,
			"byteLength":9024,
			"byteOffset":140460,
			"target":34962
		},
		{
			"buffer":0,
			"byteLength":4464,
			"byteOffset":149484,
			"target":34963
		}
	],
	"buffers":[
		{
			"byteLength":153948,
			"uri":"data:application/octet-stream;base64,"
		}
	]
}
